<svg id="mdi-weather-night" viewBox="0 0 24 24" xmlns="http://www.w3.org/2000/svg"><path d="M 18.97 15.95 C 19.8 15.87 20.69 17.05 20.16 17.8 C 19.84 18.25 19.5 18.67 19.08 19.07 C 15.17 23 8.84 23 4.94 19.07 C 1.03 15.17 1.03 8.83 4.94 4.93 C 5.34 4.53 5.76 4.17 6.21 3.85 C 6.96 3.32 8.14 4.21 8.06 5.04 C 7.79 7.9 8.75 10.87 10.95 13.06 C 13.14 15.26 16.1 16.22 18.97 15.95 M 17.33 17.97 C 14.5 17.81 11.7 16.64 9.53 14.5 C 7.36 12.31 6.2 9.5 6.04 6.68 C 3.23 9.82 3.34 14.64 6.35 17.66 C 9.37 20.67 14.19 20.78 17.33 17.97 Z"></path></svg>