<svg xmlns="http://www.w3.org/2000/svg" viewBox="0 0 136 136"><defs><style>.a{fill:#222;}.b{fill:#111;}.c{fill:#000;}</style></defs><path class="a" d="M45.9,94.9h-27c-25.3-1-25.1-37.1.2-37.8C12.4,75.4,26.6,95.2,45.9,94.9Z"/><path class="b" d="M88.4,94.9h-43A28.4,28.4,0,0,1,42,38.3C35.9,66.8,58.7,95.3,88.4,94.9Z"/><path class="c" d="M135.7,94.9H88.3A47.3,47.3,0,0,1,54.8,14.1c45.4-42.2,108.7,19.3,68,65.9a28.4,28.4,0,0,0-1-39.1c-18.1-18.2-49.3-4.5-48.5,20.8.1,15.1,13.4,28,28.4,27.7h20.6A19.3,19.3,0,0,1,135.7,94.9Z"/></svg>
